<svg height="512" viewBox="0 0 512 512" width="512" xmlns="http://www.w3.org/2000/svg"><g id="filled_outline" data-name="filled outline"><path d="m280 216h-48v-168a24 24 0 0 1 24-24 24 24 0 0 1 24 24z" fill="#dc9315"/><path d="m264 25.47a23.929 23.929 0 0 0 -16 22.53v168h32v-168a23.929 23.929 0 0 0 -16-22.53z" fill="#c48412"/><path d="m144 212.085-93.912 19.915-24.888-117.39a48.007 48.007 0 0 1 3.417-30.165 48 48 0 0 1 75.129-15.931 48 48 0 0 1 15.361 26.186z" fill="#ce9c77"/><path d="m56.492 115.969a8 8 0 0 1 -1.652-15.828l31.308-6.633a8 8 0 0 1 3.317 15.656l-31.309 6.636a8.086 8.086 0 0 1 -1.664.169z" fill="#be906e"/><path d="m63.129 147.273a8 8 0 0 1 -1.652-15.828l31.308-6.633a8 8 0 0 1 3.315 15.657l-31.307 6.631a8.092 8.092 0 0 1 -1.664.173z" fill="#be906e"/><path d="m69.766 178.578a8 8 0 0 1 -1.653-15.828l31.309-6.633a8 8 0 0 1 3.316 15.656l-31.308 6.633a8.1 8.1 0 0 1 -1.664.172z" fill="#be906e"/><path d="m143.134 208-10.335-48.737-52.799 48.737z" fill="#c39372"/><path d="m96 208 104-96v104h-104z" fill="#fbeebd"/><path d="m425.862 99.327 8.974-30.76-46.582-11.582-8.974 30.76a80 80 0 0 0 -46.5 54.387l-28.78 96.828 108.691 27.024 28.783-96.826a80.006 80.006 0 0 0 -15.612-69.831z" fill="#bef5fa"/><path d="m434.836 68.566-31.664-7.872-7.892 27.052a80 80 0 0 0 -46.5 54.387l-28.78 96.826 93.792 23.32 27.682-93.121a80 80 0 0 0 -15.612-69.831z" fill="#b6eaef"/><path d="m383.406 31.249h64v32h-64z" fill="#4298d1" transform="matrix(.97 .241 -.241 .97 23.675 -98.837)"/><path d="m410.958 30.025h32v40.192h-32z" fill="#3e8cc7" transform="matrix(.241 -.97 .97 .241 275.3 452.371)"/><path d="m313.134 208.232 109.206 25.291 19.134-64.365-108.691-27.025z" fill="#4298d1"/><path d="m328 210.419 94.689 21.93 18.785-63.191-94.243-23.432z" fill="#3e8cc7"/><path d="m374.96 464h-237.92a64 64 0 0 1 -63.578-56.664l-17.462-151.336h400l-17.462 151.336a64 64 0 0 1 -63.578 56.664z" fill="#dc9315"/><path d="m480 256h-448a16 16 0 0 1 -16-16v-16a16 16 0 0 1 16-16h8l88 24 88-24h264a16 16 0 0 1 16 16v16a16 16 0 0 1 -16 16z" fill="#ec9e15"/><g fill="#c48412"><path d="m88 376a47.8 47.8 0 0 0 -17.758 3.433l3.22 27.9a63.986 63.986 0 0 0 44.886 53.841 47.992 47.992 0 0 0 -30.348-85.174z"/><path d="m320 392h16v16h-16z"/><path d="m288 392h16v16h-16z"/><path d="m288 424h16v16h-16z"/><path d="m288 328h16v16h-16z"/><path d="m288 360h16v16h-16z"/><path d="m352 392h16v16h-16z"/><path d="m352 424h16v16h-16z"/><path d="m320 424h16v16h-16z"/><path d="m320 360h16v16h-16z"/><path d="m255.058 384.487a28.521 28.521 0 0 0 -51.965-11.787 9.053 9.053 0 0 1 -15.066 0 28.521 28.521 0 0 0 -51.965 11.787l-.012.082a92.538 92.538 0 0 0 11.262 59l11.616 20.328c.022.039.058.067.081.106h28.551l8-8 8 8h28.551c.023-.039.058-.067.081-.106l11.616-20.328a92.538 92.538 0 0 0 11.262-59z"/></g><path d="m454.151 272.02 1.849-16.02h-400l1.849 16.02z" fill="#d38e14"/><path d="m128 304-88-96h176z" fill="#f85542"/><path d="m164 256h-88l44 48z" fill="#d38e14"/><path d="m299.951 256h-57.941a23.925 23.925 0 0 0 7.03 16.97l171.7 171.7a63.763 63.763 0 0 0 17.8-37.331l1.319-11.431z" fill="#c48412"/><path d="m75.998 256h12.002l-40-48-16 .002z" fill="#dc9315"/><path d="m128 304.002-88-96h176z" fill="#97d9a9"/><path d="m194.688 384h-.18a8.006 8.006 0 0 1 -7.824-8.172 68.417 68.417 0 0 1 43.054-62.117l2.848-1.141a8 8 0 0 1 5.945 14.86l-2.851 1.14a52.416 52.416 0 0 0 -33 47.6 8.006 8.006 0 0 1 -7.992 7.83z" fill="#c48412"/><path d="m202.688 376h-.18a8.006 8.006 0 0 1 -7.824-8.172 68.417 68.417 0 0 1 43.054-62.117l2.848-1.141a8 8 0 0 1 5.945 14.86l-2.851 1.14a52.416 52.416 0 0 0 -33 47.6 8.006 8.006 0 0 1 -7.992 7.83z" fill="#a55e00"/><path d="m226.224 464a16.088 16.088 0 0 1 -11.376-4.712l-11.288-11.288-11.288 11.288a16.088 16.088 0 0 1 -11.372 4.712 16.087 16.087 0 0 1 -13.968-8.106l-11.616-20.327a92.542 92.542 0 0 1 -11.262-59l.012-.082a28.521 28.521 0 0 1 28.234-24.485 28.523 28.523 0 0 1 23.731 12.7 9.053 9.053 0 0 0 15.066 0 28.523 28.523 0 0 1 23.727-12.7 28.521 28.521 0 0 1 28.234 24.487l.012.082a92.542 92.542 0 0 1 -11.262 59l-11.616 20.327a16.087 16.087 0 0 1 -13.968 8.104z" fill="#f85542"/><path d="m203.559 403.758a43.834 43.834 0 0 1 -19.579-4.6 8 8 0 1 1 7.157-14.312 27.9 27.9 0 0 0 24.843 0 8 8 0 1 1 7.157 14.312 43.82 43.82 0 0 1 -19.578 4.6z" fill="#ff756a"/><circle cx="88" cy="416" fill="#ff9201" r="48"/><path d="m88 400h-.18a8.006 8.006 0 0 1 -7.82-8.172 68.417 68.417 0 0 1 43.055-62.117l2.847-1.141a8 8 0 0 1 5.946 14.86l-2.848 1.14a52.416 52.416 0 0 0 -33 47.6 8.005 8.005 0 0 1 -8 7.83z" fill="#a55e00"/><path d="m88 403.758a43.817 43.817 0 0 1 -19.578-4.6 8 8 0 0 1 7.156-14.312 27.9 27.9 0 0 0 24.844 0 8 8 0 1 1 7.156 14.312 43.817 43.817 0 0 1 -19.578 4.6z" fill="#e18005"/><path d="m282.98 239.029a24 24 0 0 0 -40.97 16.971h57.941z" fill="#dc9315"/><rect fill="#f5b02e" height="328" rx="24" transform="matrix(.707 -.707 .707 .707 -134.219 357.976)" width="48" x="341.005" y="177.005"/><path d="m480 200h-39.365l8.357-28.232.07-.221c0-.009 0-.018 0-.026l.138-.466a88.294 88.294 0 0 0 -14.54-73.375l5.673-19.5.339.085a8.114 8.114 0 0 0 1.93.234 8.011 8.011 0 0 0 7.765-6.07l7.719-31.055a8.006 8.006 0 0 0 -5.836-9.695l-62.109-15.445a8.013 8.013 0 0 0 -9.7 5.836l-7.718 31.055a7.967 7.967 0 0 0 5.519 9.545l-5.613 19.307a89.162 89.162 0 0 0 -29.117 22.265 88.088 88.088 0 0 0 -18.383 35.633l-17.895 60.125h-19.234v-152a32 32 0 0 0 -64 0v152h-16v-88a8 8 0 0 0 -13.426-5.875l-54.228 50.057-13.4-63.127a56.006 56.006 0 0 0 -109.575 23.245l17.718 83.7h-3.089a24.027 24.027 0 0 0 -24 24v16a24.027 24.027 0 0 0 24 24h16.869l11.9 103.108a55.95 55.95 0 0 0 50.237 99.892 71.48 71.48 0 0 0 26.033 5h237.922a72.1 72.1 0 0 0 56.4-27.385l16 16a32 32 0 0 0 45.254-45.258l-42.061-42.057 12.58-109.3h16.866a24.027 24.027 0 0 0 24-24v-16a24.027 24.027 0 0 0 -24-24zm-39.371-154.719-3.859 15.524-2.056-.512-44.526-11.093 3.855-15.5zm-84.969 69.383a72.754 72.754 0 0 1 26.723-19.531 8.028 8.028 0 0 0 4.582-5.141l6.8-23.391 31.03 7.716-6.635 22.808a7.986 7.986 0 0 0 1.481 7.289 72.221 72.221 0 0 1 15.527 54.9l-92.221-22.886a72.264 72.264 0 0 1 12.713-21.764zm-17.377 37.1 92.94 23.06-8.029 25.176h-99.267zm-88.908 65.615a31.187 31.187 0 0 0 -8.243 30.621h-50.944l29.333-32h31.558c-.556.479-1.179.851-1.704 1.375zm-191.187-1.379h139.624l-69.812 76.164zm181.812-168a16 16 0 0 1 32 0v152h-32zm-48 152h-75.539l75.539-69.727zm-156.1-112.156a39.76 39.76 0 0 1 36.425-23.2 39.1 39.1 0 0 1 26.164 9.851 39.977 39.977 0 0 1 12.811 21.888l15.373 72.423-33.797 31.194h-41.43l-18.423-87.023a39.9 39.9 0 0 1 2.877-25.133zm-11.9 152.156v-16a8.008 8.008 0 0 1 8-8h4.479l4.3 4.693c.029.03.052.06.081.089l24.952 27.218h-33.812a8.008 8.008 0 0 1 -8-8zm24 176a39.94 39.94 0 0 1 34.241-39.417 68.338 68.338 0 0 0 -1.74 10.036 27.527 27.527 0 0 1 -4.923-1.775 8 8 0 0 0 -7.156 14.312 43.946 43.946 0 0 0 39.156 0 8 8 0 1 0 -7.156-14.312 27.154 27.154 0 0 1 -3.852 1.388 52.652 52.652 0 0 1 1.872-8.674 39.926 39.926 0 1 1 -50.442 38.442zm79.943 39.178a55.923 55.923 0 0 0 14.786-27.4 99.575 99.575 0 0 0 5.638 11.761l9.408 16.461h-20.736a55.811 55.811 0 0 1 -9.096-.822zm75.612-78.444a17.02 17.02 0 0 0 14.191-7.593 20.52 20.52 0 0 1 37.4 8.562 84.965 84.965 0 0 1 -10.289 53.9l-11.621 20.32c-2.492 4.359-9.2 5.266-12.738 1.711l-11.289-11.289a8 8 0 0 0 -11.313 0l-11.281 11.281a8.367 8.367 0 0 1 -12.746-1.7l-11.611-20.326a85.015 85.015 0 0 1 -10.278-53.985 20.521 20.521 0 0 1 37.391-8.476 17.019 17.019 0 0 0 14.184 7.595zm171.406 79.266h-125.618l9.411-16.461a101.1 101.1 0 0 0 12.223-64.187 36.485 36.485 0 0 0 -56.615-25.052 52.3 52.3 0 0 1 29.318-29.73l2.851-1.14a8 8 0 0 0 -5.945-14.86l-2.848 1.141a68.262 68.262 0 0 0 -41.01 47.662 36.521 36.521 0 0 0 -60.595 22.065 99.145 99.145 0 0 0 -.87 10.655 56.209 56.209 0 0 0 -29.549-23.175 52.379 52.379 0 0 1 23.286-18.348l2.852-1.14a8 8 0 0 0 -5.946-14.86l-2.847 1.141a68.266 68.266 0 0 0 -34.289 30.328c-.259 0-.51-.039-.77-.039a55.959 55.959 0 0 0 -11.8 1.275l-11.223-97.275h15.5l41.623 45.406a8 8 0 0 0 11.8 0l41.621-45.406h75.229l169.182 169.185a56.012 56.012 0 0 1 -44.971 22.815zm106.344-6.695a16.381 16.381 0 0 1 -22.629 0l-197.988-197.993c-.29-.289-.5-.627-.768-.933-.014-.014-.023-.031-.037-.046a15.96 15.96 0 0 1 23.429-21.645l32.913 32.912.1.1 164.98 164.974a16.033 16.033 0 0 1 0 22.631zm-45.2-90.453-94.853-94.852h105.775zm51.895-118.852a8.008 8.008 0 0 1 -8 8h-154.749l-30.626-30.625c-.523-.524-1.148-.9-1.7-1.375h187.075a8.008 8.008 0 0 1 8 8z"/><path d="m56.492 115.969a8.086 8.086 0 0 0 1.664-.172l31.309-6.633a8 8 0 0 0 -3.317-15.656l-31.308 6.633a8 8 0 0 0 1.652 15.828z"/><path d="m61.477 131.445a8 8 0 0 0 1.652 15.828 8.092 8.092 0 0 0 1.664-.171l31.307-6.633a8 8 0 0 0 -3.317-15.657z"/><path d="m68.113 162.75a8 8 0 0 0 1.653 15.828 8.1 8.1 0 0 0 1.664-.172l31.308-6.633a8 8 0 0 0 -3.316-15.656z"/><path d="m180.4 388.422a8 8 0 0 0 3.578 10.734 43.948 43.948 0 0 0 39.157 0 8 8 0 1 0 -7.157-14.312 27.9 27.9 0 0 1 -24.843 0 8.006 8.006 0 0 0 -10.735 3.578z"/><path d="m320 392h16v16h-16z"/><path d="m288 392h16v16h-16z"/><path d="m288 424h16v16h-16z"/><path d="m288 328h16v16h-16z"/><path d="m288 360h16v16h-16z"/><path d="m352 392h16v16h-16z"/><path d="m352 424h16v16h-16z"/><path d="m320 424h16v16h-16z"/><path d="m320 360h16v16h-16z"/></g></svg>