<?xml version="1.0"?>
<svg xmlns="http://www.w3.org/2000/svg" id="Layer_1" enable-background="new 0 0 511 511" height="512px" viewBox="0 0 511 511" width="512px" class=""><g><path d="m407.5 279.5h-128c0-35.35 28.65-64 64-64s64 28.65 64 64z" fill="#fff" data-original="#FFF" class=""/><path d="m407.5 279.5c0-35.35-28.65-64-64-64-11.6 0-22.47 3.1-31.85 8.5 2.58-.32 5.19-.5 7.85-.5 32.64 0 59.57 24.43 63.51 56z" fill="#e5ecf5" data-original="#E5ECF5" class=""/><path d="m311.5 279.5c0-17.673 14.327-32 32-32s32 14.327 32 32" fill="#ffc06e" data-original="#FFC06E" class="active-path" data-old_color="#ffc06e" style="fill:#FFBB73"/><path d="m375.5 279.5h-17.01c-3.55-13.8-16.08-24-30.99-24-1.96 0-3.87.19-5.74.52 5.71-5.28 13.35-8.52 21.74-8.52 17.67 0 32 14.33 32 32z" fill="#ff8853" data-original="#FF8853" class=""/><path d="m63.5 23.5h384v32h-384z" fill="#ff5282" data-original="#FF5282" class="" data-old_color="#ff5282" style="fill:#FF5D40"/><path d="m63.5 39.5h384v16h-384z" fill="#ff2264" data-original="#FF2264" class="" data-old_color="#ff2264" style="fill:#FF5D40"/><path d="m63.5 23.5h48v32h-48z" fill="#fff" data-original="#FFF" class=""/><path d="m63.5 39.5h48v16h-48z" fill="#e5ecf5" data-original="#E5ECF5" class=""/><path d="m303.5 23.5h64v32h-64z" fill="#00c5be" data-original="#00C5BE" class="" data-old_color="#00c5be" style="fill:#5E3101"/><path d="m303.5 39.5h64v16h-64z" fill="#00b1a5" data-original="#00B1A5" class="" data-old_color="#00b1a5" style="fill:#5E3101"/><path d="m63.5 87.5h384v32h-384z" fill="#ff5282" data-original="#FF5282" class="" data-old_color="#ff5282" style="fill:#FF5D40"/><path d="m63.5 103.5h384v16h-384z" fill="#ff2264" data-original="#FF2264" class="" data-old_color="#ff2264" style="fill:#FF5D40"/><path d="m63.5 87.5h48v32h-48z" fill="#fff" data-original="#FFF" class=""/><path d="m63.5 103.5h48v16h-48z" fill="#e5ecf5" data-original="#E5ECF5" class=""/><path d="m303.5 87.5h64v32h-64z" fill="#00c5be" data-original="#00C5BE" class="" data-old_color="#00c5be" style="fill:#5E3101"/><path d="m303.5 103.5h64v16h-64z" fill="#00b1a5" data-original="#00B1A5" class="" data-old_color="#00b1a5" style="fill:#5E3101"/><path d="m239.5 279.5v-272h-96v272" fill="#ffc06e" data-original="#FFC06E" class="active-path" data-old_color="#ffc06e" style="fill:#FFBB73"/><path d="m143.5 7.5v24h96v-24" fill="#ff8853" data-original="#FF8853" class=""/><path d="m255.5 471.5c-19.482 0-38.282-2.912-56-8.306v24.306c0 8.837 7.163 16 16 16h80c8.837 0 16-7.163 16-16v-24.306c-17.718 5.394-36.518 8.306-56 8.306z" fill="#ff2264" data-original="#FF2264" class="" data-old_color="#ff2264" style="fill:#FF5D40"/><path d="m447.5 279.5c0 106.039-85.961 192-192 192s-192-85.961-192-192z" fill="#ff5282" data-original="#FF5282" class="" data-old_color="#ff5282" style="fill:#FF5D40"/><path d="m415.5 279.5c0 100.649-77.449 183.199-176 191.331 5.277.436 10.611.669 16 .669 106.039 0 192-85.961 192-192z" fill="#ff2264" data-original="#FF2264" class="" data-old_color="#ff2264" style="fill:#FF5D40"/><path d="m447.5 279.5c0 10.9-.91 21.59-2.66 32h-378.68c-1.75-10.41-2.66-21.1-2.66-32z" fill="#fff" data-original="#FFF" class=""/><path d="m447.5 279.5h-32c0 10.903-.912 21.593-2.658 32h31.988c1.747-10.408 2.67-21.095 2.67-32z" fill="#e5ecf5" data-original="#E5ECF5" class=""/><path d="m455 63v-47h-208v-16h-111v16h-80v47h80v17h-80v47h80v145h-80v7.5c0 87.814 57.032 162.554 136 189.136v18.864c0 12.958 10.542 23.5 23.5 23.5h80c12.958 0 23.5-10.542 23.5-23.5v-18.864c78.968-26.582 136-101.322 136-189.136v-7.5h-40.396c-3.761-35.913-34.213-64-71.104-64s-67.343 28.087-71.104 64h-57.396v-257h17v240.5h15v-160.5h49v17h-32.5v15h191.5v-47h-208v-17zm-80-32h65v17h-65zm-64 0h49v17h-49zm-64 0h49v17h-49zm-96-16h17v240.5h15v-240.5h17v257h-49zm-47 33h-33v-17h33zm15 0v-17h17v17zm-15 64h-33v-17h33zm15 0v-17h17v17zm185 375.5c0 4.687-3.814 8.5-8.5 8.5h-80c-4.686 0-8.5-3.813-8.5-8.5v-14.474c15.533 3.894 31.777 5.974 48.5 5.974s32.967-2.08 48.5-5.974zm-48.5-23.5c-88.176 0-162.098-62.186-180.236-145h360.472c-18.138 82.814-92.06 145-180.236 145zm88-241c28.61 0 52.305 21.381 55.987 49h-17.21c-3.515-18.205-19.561-32-38.777-32s-35.262 13.795-38.777 32h-17.21c3.682-27.619 27.377-49 55.987-49zm23.321 49h-46.643c3.176-9.851 12.427-17 23.321-17s20.147 7.149 23.322 17zm73.029 15c-.231 5.738-.735 11.407-1.481 17h-365.737c-.746-5.593-1.25-11.262-1.481-17zm-64.85-192h65v17h-65zm-64 0h49v17h-49z" data-original="#000000" class="" style="fill:#000000" data-old_color="#000000"/><path d="m247.5 368h16v15h-16z" data-original="#000000" class="" style="fill:#000000" data-old_color="#000000"/><g fill="#fff"><path d="m215.5 368h16v15h-16z" data-original="#000000" class="" style="fill:#000000" data-old_color="#000000"/><path d="m279.5 368h16v15h-16z" data-original="#000000" class="" style="fill:#000000" data-old_color="#000000"/></g></g> </svg>
